Coordinates
version=1
nRows=18
nColumns=22
inDegrees=yes

Units are S.I. units (second, meters, Newtons, ...)
If the header above contains a line with 'inDegrees', this indicates whether rotational values are in degrees (yes) or radians (no).

endheader
time	pelvis_tilt	pelvis_list	pelvis_rotation	pelvis_tx	pelvis_ty	pelvis_tz	hip_flexion_r	hip_adduction_r	hip_rotation_r	knee_angle_r	ankle_angle_r	subtalar_angle_r	hip_flexion_l	hip_adduction_l	hip_rotation_l	knee_angle_l	ankle_angle_l	subtalar_angle_l	lumbar_extension	lumbar_bending	lumbar_rotation
      1.27000000	    -11.05864173	     -0.47062081	     -0.22864900	     -0.45030033	      0.97511854	      0.27608260	     31.28545634	     -2.35549385	     -2.80900132	    -40.99795424	     18.79405349	     -0.93746634	     15.02967235	      4.49826267	     -4.16307775	    -17.03330728	     20.53275449	     -5.35171730	      1.07703499	     -0.19357262	     -1.01258851
      1.28000000	    -11.04719158	     -0.59010554	     -0.09195182	     -0.44887617	      0.97514778	      0.27545634	     31.66398554	     -2.24075027	     -2.83508722	    -40.87620059	     18.67569133	     -0.79673172	     14.94502297	      4.43327995	     -4.02742429	    -17.06429788	     20.60693911	     -5.36527624	      0.99867131	     -0.07223138	     -1.18275448
      1.29000000	    -11.04919786	     -0.71416384	      0.04441338	     -0.44739840	      0.97515143	      0.27483469	     32.04235613	     -2.12822182	     -2.87666111	    -40.64806381	     18.53952490	     -0.65009457	     14.87523232	      4.36206961	     -3.89674116	    -17.10191668	     20.68565352	     -5.38131144	      0.93196759	      0.06236302	     -1.35437931
      1.30000000	    -11.05563856	     -0.82517276	      0.17062667	     -0.44584159	      0.97515426	      0.27424319	     32.40724525	     -2.02720662	     -2.90907010	    -40.31175295	     18.37698265	     -0.53306569	     14.79572731	      4.30144136	     -3.77467485	    -17.11999384	     20.76676008	     -5.39359373	      0.86925701	      0.17919810	     -1.48856838
      1.31000000	    -11.06715769	     -0.93533500	      0.28227763	     -0.44423489	      0.97513263	      0.27368109	     32.77528602	     -1.92845713	     -2.94692552	    -39.90266185	     18.21631037	     -0.43337473	     14.71620623	      4.23743242	     -3.65710756	    -17.13387817	     20.84956167	     -5.40581177	      0.80460357	      0.30093468	     -1.61424960
      1.32000000	    -11.09029764	     -1.04218797	      0.39419724	     -0.44256815	      0.97507187	      0.27312878	     33.14790855	     -1.83973822	     -2.99421024	    -39.42352695	     18.08135351	     -0.33836112	     14.65257103	      4.17401619	     -3.56185213	    -17.16086455	     20.94308770	     -5.42554816	      0.74930402	      0.42216777	     -1.75234895
      1.33000000	    -11.11329534	     -1.13077482	      0.48058235	     -0.44082814	      0.97500112	      0.27262834	     33.51805530	     -1.75833429	     -3.01684768	    -38.88478371	     17.94321742	     -0.27757319	     14.56991915	      4.12560125	     -3.46811683	    -17.16230082	     21.02902970	     -5.43916363	      0.68879369	      0.52148314	     -1.84380020
      1.34000000	    -11.13361246	     -1.20080158	      0.54423187	     -0.43901659	      0.97491624	      0.27218172	     33.88650543	     -1.68257458	     -3.01452668	    -38.30171758	     17.81608819	     -0.24198095	     14.46664355	      4.09234451	     -3.37892822	    -17.14012603	     21.10827112	     -5.44438716	      0.61994616	      0.59869939	     -1.89605236
      1.35000000	    -11.16026610	     -1.27470746	      0.60401751	     -0.43714783	      0.97479418	      0.27177025	     34.25813369	     -1.60179401	     -3.01921030	    -37.67502125	     17.68755632	     -0.21262010	     14.37442588	      4.04972627	     -3.30897756	    -17.13464368	     21.20631863	     -5.45161824	      0.55273120	      0.68202241	     -1.96279949
      1.36000000	    -11.18862195	     -1.33577231	      0.65068009	     -0.43521203	      0.97464289	      0.27141492	     34.63381922	     -1.52314108	     -3.00805520	    -37.02140533	     17.54836358	     -0.18676141	     14.27554522	      4.01481552	     -3.25267491	    -17.12239740	     21.30953207	     -5.45427470	      0.48200314	      0.74916200	     -2.01731872
      1.37000000	    -11.21626729	     -1.39199149	      0.68679368	     -0.43320539	      0.97446625	      0.27111470	     35.00888990	     -1.43757072	     -2.98360859	    -36.34390230	     17.37633263	     -0.15491822	     14.16986351	      3.97962176	     -3.21009643	    -17.10935587	     21.42240174	     -5.45191218	      0.40667654	      0.80975354	     -2.06252172
      1.38000000	    -11.24020800	     -1.44034743	      0.71196717	     -0.43112022	      0.97426905	      0.27087730	     35.38029559	     -1.34608275	     -2.94051737	    -35.65040084	     17.16354983	     -0.10783664	     14.05175979	      3.94632377	     -3.18028791	    -17.09170241	     21.54310264	     -5.44401352	      0.32283529	      0.86001711	     -2.09993092
      1.39000000	    -11.26019525	     -1.48863786	      0.72876246	     -0.42895586	      0.97405237	      0.27069887	     35.74504095	     -1.24131246	     -2.88367584	    -34.94212567	     16.89661778	     -0.03350436	     13.92492011	      3.90715763	     -3.16555378	    -17.07669276	     21.67536263	     -5.43044001	      0.23120584	      0.90956350	     -2.13038569
      1.40000000	    -11.27560232	     -1.53287719	      0.73809343	     -0.42671073	      0.97381400	      0.27057800	     36.10314177	     -1.12906908	     -2.81678885	    -34.22616142	     16.58922231	      0.07584896	     13.78899462	      3.86601662	     -3.16619547	    -17.06486901	     21.81619022	     -5.41110578	      0.13047861	      0.95367346	     -2.15618983
      1.41000000	    -11.28934795	     -1.58064397	      0.74054692	     -0.42438474	      0.97355367	      0.27051086	     36.45411314	     -1.00002506	     -2.73554382	    -33.49985811	     16.22494428	      0.23417268	     13.64421366	      3.81641690	     -3.17370513	    -17.05104969	     21.97060973	     -5.38538845	      0.02544583	      1.00139251	     -2.17332327
      1.42000000	    -11.29398143	     -1.63579547	      0.73580175	     -0.42196606	      0.97327288	      0.27048370	     36.78664266	     -0.85679978	     -2.65902959	    -32.76429433	     15.88634510	      0.51299162	     13.49403736	      3.74919467	     -3.22896721	    -17.05651158	     22.14755836	     -5.33861247	     -0.09226804	      1.06437905	     -2.20905882
      1.43000000	    -11.30403463	     -1.64957658	      0.72988552	     -0.41948083	      0.97295606	      0.27046210	     37.13124622	     -0.75316164	     -2.58937406	    -32.04314822	     15.52174765	      0.74251033	     13.32803920	      3.73408088	     -3.22617312	    -17.03109898	     22.30309337	     -5.31288095	     -0.20855270	      1.07796794	     -2.20778094
      1.44000000	    -11.29526961	     -1.68694529	      0.71705792	     -0.41687290	      0.97263934	      0.27050364	     37.43746851	     -0.62181395	     -2.54468275	    -31.30655387	     15.26269035	      1.19378669	     13.15009840	      3.67787204	     -3.30281706	    -17.03328081	     22.49258319	     -5.26897094	     -0.34384080	      1.12013522	     -2.24662179
